G04 Layer: TopLayer*
G04 EasyEDA v6.3.53, 2020-06-26T23:15:25+02:00*
G04 6fd25902097d4e8db6daa192949f21c5,4fd0710e9bbd4be3aafab857286521a7,10*
G04 Gerber Generator version 0.2*
G04 Scale: 100 percent, Rotated: No, Reflected: No *
G04 Dimensions in millimeters *
G04 leading zeros omitted , absolute positions ,3 integer and 3 decimal *
%FSLAX33Y33*%
%MOMM*%
G90*
G71D02*

%ADD11C,0.499999*%
%ADD15C,1.099998*%

%LPD*%
G36*
G01X843Y6243D02*
G01X358Y6243D01*
G01X343Y6242D01*
G01X329Y6239D01*
G01X315Y6234D01*
G01X303Y6227D01*
G01X291Y6218D01*
G01X281Y6208D01*
G01X272Y6196D01*
G01X265Y6184D01*
G01X260Y6170D01*
G01X257Y6156D01*
G01X256Y6141D01*
G01X256Y5638D01*
G01X257Y5624D01*
G01X260Y5609D01*
G01X265Y5596D01*
G01X272Y5584D01*
G01X281Y5572D01*
G01X291Y5562D01*
G01X303Y5553D01*
G01X315Y5546D01*
G01X329Y5541D01*
G01X343Y5538D01*
G01X358Y5537D01*
G01X373Y5538D01*
G01X388Y5541D01*
G01X402Y5547D01*
G01X415Y5555D01*
G01X427Y5564D01*
G01X437Y5575D01*
G01X446Y5588D01*
G01X452Y5601D01*
G01X468Y5639D01*
G01X486Y5676D01*
G01X506Y5712D01*
G01X527Y5747D01*
G01X551Y5781D01*
G01X576Y5814D01*
G01X602Y5845D01*
G01X630Y5875D01*
G01X660Y5904D01*
G01X691Y5931D01*
G01X724Y5956D01*
G01X757Y5980D01*
G01X792Y6002D01*
G01X828Y6021D01*
G01X865Y6040D01*
G01X865Y5471D01*
G01X358Y5471D01*
G01X343Y5470D01*
G01X329Y5467D01*
G01X315Y5462D01*
G01X303Y5456D01*
G01X291Y5446D01*
G01X281Y5436D01*
G01X272Y5425D01*
G01X265Y5412D01*
G01X260Y5399D01*
G01X257Y5384D01*
G01X256Y5370D01*
G01X256Y4547D01*
G01X257Y4532D01*
G01X260Y4518D01*
G01X265Y4505D01*
G01X272Y4492D01*
G01X281Y4480D01*
G01X291Y4470D01*
G01X303Y4461D01*
G01X315Y4454D01*
G01X329Y4449D01*
G01X343Y4446D01*
G01X358Y4445D01*
G01X865Y4445D01*
G01X865Y3877D01*
G01X828Y3895D01*
G01X792Y3915D01*
G01X757Y3937D01*
G01X724Y3961D01*
G01X691Y3986D01*
G01X660Y4013D01*
G01X630Y4041D01*
G01X602Y4071D01*
G01X576Y4102D01*
G01X551Y4135D01*
G01X527Y4169D01*
G01X506Y4204D01*
G01X486Y4240D01*
G01X468Y4277D01*
G01X452Y4315D01*
G01X446Y4329D01*
G01X437Y4342D01*
G01X427Y4353D01*
G01X415Y4362D01*
G01X402Y4369D01*
G01X388Y4375D01*
G01X373Y4379D01*
G01X358Y4380D01*
G01X343Y4379D01*
G01X329Y4376D01*
G01X315Y4370D01*
G01X303Y4364D01*
G01X291Y4355D01*
G01X281Y4345D01*
G01X272Y4333D01*
G01X265Y4320D01*
G01X260Y4307D01*
G01X257Y4293D01*
G01X256Y4278D01*
G01X256Y1839D01*
G01X257Y1824D01*
G01X260Y1810D01*
G01X265Y1796D01*
G01X272Y1784D01*
G01X281Y1772D01*
G01X291Y1762D01*
G01X303Y1753D01*
G01X315Y1746D01*
G01X329Y1741D01*
G01X343Y1738D01*
G01X358Y1737D01*
G01X373Y1738D01*
G01X388Y1742D01*
G01X402Y1747D01*
G01X415Y1755D01*
G01X427Y1764D01*
G01X437Y1775D01*
G01X446Y1788D01*
G01X452Y1802D01*
G01X468Y1839D01*
G01X486Y1876D01*
G01X506Y1912D01*
G01X527Y1947D01*
G01X551Y1981D01*
G01X576Y2014D01*
G01X602Y2045D01*
G01X630Y2075D01*
G01X660Y2104D01*
G01X691Y2131D01*
G01X724Y2156D01*
G01X757Y2180D01*
G01X792Y2202D01*
G01X828Y2222D01*
G01X865Y2240D01*
G01X865Y1671D01*
G01X358Y1671D01*
G01X343Y1670D01*
G01X329Y1667D01*
G01X315Y1662D01*
G01X303Y1656D01*
G01X291Y1647D01*
G01X281Y1636D01*
G01X272Y1625D01*
G01X265Y1612D01*
G01X260Y1599D01*
G01X257Y1585D01*
G01X256Y1570D01*
G01X256Y747D01*
G01X257Y732D01*
G01X260Y718D01*
G01X265Y705D01*
G01X272Y692D01*
G01X281Y680D01*
G01X291Y670D01*
G01X303Y661D01*
G01X315Y654D01*
G01X329Y649D01*
G01X343Y646D01*
G01X358Y645D01*
G01X865Y645D01*
G01X865Y358D01*
G01X866Y343D01*
G01X869Y329D01*
G01X874Y316D01*
G01X881Y303D01*
G01X890Y291D01*
G01X900Y281D01*
G01X912Y272D01*
G01X925Y265D01*
G01X938Y260D01*
G01X952Y257D01*
G01X967Y256D01*
G01X1440Y256D01*
G01X1455Y257D01*
G01X1469Y260D01*
G01X1482Y265D01*
G01X1495Y272D01*
G01X1507Y281D01*
G01X1517Y291D01*
G01X1526Y303D01*
G01X1533Y316D01*
G01X1538Y329D01*
G01X1541Y343D01*
G01X1542Y358D01*
G01X1542Y645D01*
G01X1993Y645D01*
G01X1983Y604D01*
G01X1972Y563D01*
G01X1958Y523D01*
G01X1942Y484D01*
G01X1923Y446D01*
G01X1903Y408D01*
G01X1896Y392D01*
G01X1891Y375D01*
G01X1890Y358D01*
G01X1891Y343D01*
G01X1894Y329D01*
G01X1899Y316D01*
G01X1906Y303D01*
G01X1915Y291D01*
G01X1925Y281D01*
G01X1937Y272D01*
G01X1949Y265D01*
G01X1963Y260D01*
G01X1977Y257D01*
G01X1991Y256D01*
G01X9056Y256D01*
G01X9070Y257D01*
G01X9084Y260D01*
G01X9098Y265D01*
G01X9110Y272D01*
G01X9122Y281D01*
G01X9132Y291D01*
G01X9141Y303D01*
G01X9148Y316D01*
G01X9153Y329D01*
G01X9156Y343D01*
G01X9157Y358D01*
G01X9156Y375D01*
G01X9151Y392D01*
G01X9144Y408D01*
G01X9124Y446D01*
G01X9105Y484D01*
G01X9089Y523D01*
G01X9075Y563D01*
G01X9064Y604D01*
G01X9054Y645D01*
G01X9505Y645D01*
G01X9505Y358D01*
G01X9506Y343D01*
G01X9509Y329D01*
G01X9514Y316D01*
G01X9521Y303D01*
G01X9530Y291D01*
G01X9540Y281D01*
G01X9552Y272D01*
G01X9565Y265D01*
G01X9578Y260D01*
G01X9592Y257D01*
G01X9607Y256D01*
G01X10080Y256D01*
G01X10095Y257D01*
G01X10109Y260D01*
G01X10122Y265D01*
G01X10135Y272D01*
G01X10147Y281D01*
G01X10157Y291D01*
G01X10166Y303D01*
G01X10173Y316D01*
G01X10178Y329D01*
G01X10181Y343D01*
G01X10182Y358D01*
G01X10182Y645D01*
G01X10642Y645D01*
G01X10656Y646D01*
G01X10670Y649D01*
G01X10684Y654D01*
G01X10696Y661D01*
G01X10708Y670D01*
G01X10718Y680D01*
G01X10727Y692D01*
G01X10734Y705D01*
G01X10739Y718D01*
G01X10742Y732D01*
G01X10743Y747D01*
G01X10743Y1570D01*
G01X10742Y1585D01*
G01X10739Y1599D01*
G01X10734Y1612D01*
G01X10727Y1625D01*
G01X10718Y1636D01*
G01X10708Y1647D01*
G01X10696Y1656D01*
G01X10684Y1662D01*
G01X10670Y1667D01*
G01X10656Y1670D01*
G01X10642Y1671D01*
G01X10182Y1671D01*
G01X10182Y2240D01*
G01X10220Y2221D01*
G01X10258Y2200D01*
G01X10294Y2176D01*
G01X10329Y2152D01*
G01X10363Y2125D01*
G01X10395Y2096D01*
G01X10426Y2066D01*
G01X10455Y2034D01*
G01X10482Y2001D01*
G01X10507Y1966D01*
G01X10530Y1930D01*
G01X10552Y1893D01*
G01X10560Y1880D01*
G01X10571Y1869D01*
G01X10583Y1858D01*
G01X10596Y1851D01*
G01X10611Y1845D01*
G01X10626Y1841D01*
G01X10642Y1840D01*
G01X10656Y1841D01*
G01X10670Y1844D01*
G01X10684Y1849D01*
G01X10696Y1856D01*
G01X10708Y1865D01*
G01X10718Y1875D01*
G01X10727Y1887D01*
G01X10734Y1900D01*
G01X10739Y1913D01*
G01X10742Y1927D01*
G01X10743Y1942D01*
G01X10743Y4175D01*
G01X10742Y4190D01*
G01X10739Y4204D01*
G01X10734Y4217D01*
G01X10727Y4230D01*
G01X10718Y4241D01*
G01X10708Y4252D01*
G01X10696Y4260D01*
G01X10684Y4267D01*
G01X10670Y4272D01*
G01X10656Y4275D01*
G01X10642Y4277D01*
G01X10626Y4275D01*
G01X10611Y4272D01*
G01X10596Y4266D01*
G01X10583Y4258D01*
G01X10571Y4248D01*
G01X10560Y4236D01*
G01X10552Y4224D01*
G01X10530Y4186D01*
G01X10507Y4151D01*
G01X10482Y4115D01*
G01X10455Y4082D01*
G01X10426Y4050D01*
G01X10395Y4020D01*
G01X10363Y3992D01*
G01X10329Y3965D01*
G01X10294Y3940D01*
G01X10258Y3917D01*
G01X10220Y3896D01*
G01X10182Y3877D01*
G01X10182Y4445D01*
G01X10642Y4445D01*
G01X10656Y4446D01*
G01X10670Y4449D01*
G01X10684Y4454D01*
G01X10696Y4461D01*
G01X10708Y4470D01*
G01X10718Y4480D01*
G01X10727Y4492D01*
G01X10734Y4505D01*
G01X10739Y4518D01*
G01X10742Y4532D01*
G01X10743Y4547D01*
G01X10743Y5370D01*
G01X10742Y5384D01*
G01X10739Y5399D01*
G01X10734Y5412D01*
G01X10727Y5425D01*
G01X10718Y5436D01*
G01X10708Y5446D01*
G01X10696Y5456D01*
G01X10684Y5462D01*
G01X10670Y5467D01*
G01X10656Y5470D01*
G01X10642Y5471D01*
G01X10182Y5471D01*
G01X10182Y6040D01*
G01X10258Y6000D01*
G01X10294Y5976D01*
G01X10329Y5951D01*
G01X10363Y5925D01*
G01X10395Y5896D01*
G01X10426Y5866D01*
G01X10455Y5834D01*
G01X10482Y5801D01*
G01X10507Y5766D01*
G01X10530Y5730D01*
G01X10552Y5693D01*
G01X10560Y5680D01*
G01X10571Y5668D01*
G01X10583Y5658D01*
G01X10596Y5651D01*
G01X10611Y5645D01*
G01X10626Y5641D01*
G01X10642Y5640D01*
G01X10656Y5641D01*
G01X10670Y5644D01*
G01X10684Y5649D01*
G01X10696Y5656D01*
G01X10708Y5665D01*
G01X10718Y5675D01*
G01X10727Y5687D01*
G01X10734Y5699D01*
G01X10739Y5713D01*
G01X10742Y5727D01*
G01X10743Y5742D01*
G01X10743Y6141D01*
G01X10742Y6156D01*
G01X10739Y6170D01*
G01X10734Y6184D01*
G01X10727Y6196D01*
G01X10718Y6208D01*
G01X10708Y6218D01*
G01X10696Y6227D01*
G01X10684Y6234D01*
G01X10670Y6239D01*
G01X10656Y6242D01*
G01X10642Y6243D01*
G01X10204Y6243D01*
G01X10187Y6241D01*
G01X10171Y6237D01*
G01X10156Y6231D01*
G01X10142Y6222D01*
G01X10128Y6231D01*
G01X10113Y6237D01*
G01X10097Y6241D01*
G01X10080Y6243D01*
G01X9607Y6243D01*
G01X9590Y6241D01*
G01X9574Y6237D01*
G01X9559Y6231D01*
G01X9545Y6222D01*
G01X9531Y6231D01*
G01X9516Y6237D01*
G01X9500Y6241D01*
G01X9483Y6243D01*
G01X8892Y6243D01*
G01X8877Y6242D01*
G01X8863Y6239D01*
G01X8850Y6234D01*
G01X8837Y6227D01*
G01X8825Y6218D01*
G01X8815Y6208D01*
G01X8806Y6196D01*
G01X8800Y6184D01*
G01X8795Y6170D01*
G01X8791Y6156D01*
G01X8790Y6141D01*
G01X8791Y6126D01*
G01X8795Y6111D01*
G01X8801Y6097D01*
G01X8809Y6083D01*
G01X8818Y6071D01*
G01X8848Y6046D01*
G01X8864Y6029D01*
G01X8879Y6011D01*
G01X8892Y5992D01*
G01X8903Y5971D01*
G01X8912Y5949D01*
G01X8920Y5928D01*
G01X8925Y5905D01*
G01X8929Y5881D01*
G01X8930Y5858D01*
G01X8930Y5714D01*
G01X8931Y5699D01*
G01X8934Y5685D01*
G01X8939Y5671D01*
G01X8945Y5659D01*
G01X8955Y5647D01*
G01X8965Y5637D01*
G01X8976Y5628D01*
G01X8989Y5621D01*
G01X9002Y5616D01*
G01X9017Y5613D01*
G01X9031Y5612D01*
G01X9047Y5613D01*
G01X9063Y5617D01*
G01X9077Y5623D01*
G01X9091Y5631D01*
G01X9103Y5642D01*
G01X9114Y5654D01*
G01X9122Y5668D01*
G01X9141Y5705D01*
G01X9163Y5741D01*
G01X9187Y5776D01*
G01X9212Y5809D01*
G01X9238Y5841D01*
G01X9267Y5872D01*
G01X9297Y5901D01*
G01X9328Y5929D01*
G01X9361Y5954D01*
G01X9395Y5978D01*
G01X9431Y6001D01*
G01X9468Y6021D01*
G01X9505Y6040D01*
G01X9505Y5471D01*
G01X9129Y5471D01*
G01X9124Y5486D01*
G01X9118Y5498D01*
G01X9109Y5510D01*
G01X9099Y5521D01*
G01X9087Y5530D01*
G01X9074Y5537D01*
G01X9060Y5542D01*
G01X9046Y5545D01*
G01X9031Y5547D01*
G01X8536Y5547D01*
G01X8536Y6141D01*
G01X8535Y6156D01*
G01X8532Y6170D01*
G01X8527Y6184D01*
G01X8520Y6196D01*
G01X8512Y6208D01*
G01X8501Y6218D01*
G01X8490Y6227D01*
G01X8477Y6234D01*
G01X8463Y6239D01*
G01X8449Y6242D01*
G01X8435Y6243D01*
G01X8111Y6243D01*
G01X8097Y6242D01*
G01X8082Y6239D01*
G01X8069Y6234D01*
G01X8056Y6227D01*
G01X8045Y6218D01*
G01X8034Y6208D01*
G01X8025Y6196D01*
G01X8019Y6184D01*
G01X8014Y6170D01*
G01X8011Y6156D01*
G01X8010Y6141D01*
G01X8010Y5547D01*
G01X7782Y5547D01*
G01X7767Y5545D01*
G01X7753Y5542D01*
G01X7739Y5537D01*
G01X7727Y5531D01*
G01X7715Y5522D01*
G01X7705Y5511D01*
G01X7696Y5500D01*
G01X7689Y5488D01*
G01X7684Y5474D01*
G01X7681Y5460D01*
G01X7680Y5445D01*
G01X7680Y4772D01*
G01X7681Y4758D01*
G01X7684Y4743D01*
G01X7689Y4730D01*
G01X7696Y4717D01*
G01X7705Y4706D01*
G01X7715Y4695D01*
G01X7727Y4686D01*
G01X7739Y4680D01*
G01X7753Y4675D01*
G01X7767Y4672D01*
G01X7782Y4670D01*
G01X8010Y4670D01*
G01X8010Y4103D01*
G01X7873Y4103D01*
G01X7849Y4104D01*
G01X7824Y4107D01*
G01X7800Y4113D01*
G01X7777Y4122D01*
G01X7755Y4132D01*
G01X7734Y4144D01*
G01X7713Y4158D01*
G01X7699Y4168D01*
G01X7684Y4174D01*
G01X7667Y4178D01*
G01X7650Y4180D01*
G01X7636Y4179D01*
G01X7622Y4176D01*
G01X7608Y4171D01*
G01X7596Y4164D01*
G01X7584Y4155D01*
G01X7574Y4145D01*
G01X7565Y4133D01*
G01X7558Y4121D01*
G01X7553Y4107D01*
G01X7550Y4093D01*
G01X7549Y4078D01*
G01X7549Y3639D01*
G01X7548Y3606D01*
G01X7545Y3573D01*
G01X7539Y3540D01*
G01X7532Y3508D01*
G01X7522Y3476D01*
G01X7511Y3446D01*
G01X7497Y3415D01*
G01X7481Y3386D01*
G01X7464Y3359D01*
G01X7445Y3332D01*
G01X7424Y3306D01*
G01X7402Y3282D01*
G01X6899Y2776D01*
G01X6849Y2732D01*
G01X6822Y2713D01*
G01X6793Y2695D01*
G01X6764Y2679D01*
G01X6734Y2666D01*
G01X6703Y2654D01*
G01X6671Y2644D01*
G01X6639Y2637D01*
G01X6606Y2631D01*
G01X6573Y2628D01*
G01X6539Y2627D01*
G01X4507Y2627D01*
G01X4474Y2628D01*
G01X4441Y2632D01*
G01X4408Y2637D01*
G01X4375Y2645D01*
G01X4343Y2654D01*
G01X4312Y2666D01*
G01X4281Y2680D01*
G01X4252Y2696D01*
G01X4224Y2714D01*
G01X4197Y2734D01*
G01X4171Y2755D01*
G01X4147Y2778D01*
G01X3644Y3288D01*
G01X3622Y3313D01*
G01X3601Y3338D01*
G01X3582Y3365D01*
G01X3565Y3393D01*
G01X3549Y3422D01*
G01X3536Y3452D01*
G01X3525Y3483D01*
G01X3515Y3514D01*
G01X3508Y3546D01*
G01X3502Y3579D01*
G01X3499Y3611D01*
G01X3498Y3644D01*
G01X3498Y4079D01*
G01X3497Y4093D01*
G01X3494Y4107D01*
G01X3489Y4121D01*
G01X3482Y4134D01*
G01X3473Y4145D01*
G01X3463Y4156D01*
G01X3451Y4164D01*
G01X3439Y4171D01*
G01X3425Y4176D01*
G01X3411Y4179D01*
G01X3396Y4180D01*
G01X3380Y4179D01*
G01X3363Y4175D01*
G01X3347Y4168D01*
G01X3334Y4158D01*
G01X3313Y4144D01*
G01X3292Y4132D01*
G01X3270Y4122D01*
G01X3247Y4113D01*
G01X3223Y4107D01*
G01X3198Y4104D01*
G01X3174Y4103D01*
G01X3037Y4103D01*
G01X3037Y4670D01*
G01X3265Y4670D01*
G01X3280Y4672D01*
G01X3294Y4675D01*
G01X3308Y4680D01*
G01X3320Y4686D01*
G01X3332Y4695D01*
G01X3342Y4706D01*
G01X3351Y4717D01*
G01X3358Y4730D01*
G01X3363Y4743D01*
G01X3366Y4758D01*
G01X3367Y4772D01*
G01X3367Y5445D01*
G01X3366Y5460D01*
G01X3363Y5474D01*
G01X3358Y5488D01*
G01X3351Y5500D01*
G01X3342Y5511D01*
G01X3332Y5522D01*
G01X3320Y5531D01*
G01X3308Y5537D01*
G01X3294Y5542D01*
G01X3280Y5545D01*
G01X3265Y5547D01*
G01X3037Y5547D01*
G01X3037Y6141D01*
G01X3036Y6156D01*
G01X3033Y6170D01*
G01X3028Y6184D01*
G01X3021Y6196D01*
G01X3012Y6208D01*
G01X3002Y6218D01*
G01X2991Y6227D01*
G01X2978Y6234D01*
G01X2964Y6239D01*
G01X2950Y6242D01*
G01X2936Y6243D01*
G01X2612Y6243D01*
G01X2597Y6242D01*
G01X2583Y6239D01*
G01X2569Y6234D01*
G01X2557Y6227D01*
G01X2546Y6218D01*
G01X2535Y6208D01*
G01X2526Y6196D01*
G01X2520Y6184D01*
G01X2515Y6170D01*
G01X2512Y6156D01*
G01X2511Y6141D01*
G01X2511Y5547D01*
G01X2016Y5547D01*
G01X2001Y5545D01*
G01X1986Y5542D01*
G01X1973Y5537D01*
G01X1960Y5530D01*
G01X1948Y5521D01*
G01X1938Y5510D01*
G01X1929Y5498D01*
G01X1922Y5486D01*
G01X1918Y5471D01*
G01X1542Y5471D01*
G01X1542Y6040D01*
G01X1579Y6021D01*
G01X1616Y6001D01*
G01X1651Y5978D01*
G01X1686Y5954D01*
G01X1718Y5929D01*
G01X1750Y5901D01*
G01X1780Y5872D01*
G01X1808Y5841D01*
G01X1835Y5809D01*
G01X1860Y5776D01*
G01X1884Y5741D01*
G01X1905Y5706D01*
G01X1925Y5668D01*
G01X1933Y5655D01*
G01X1944Y5643D01*
G01X1956Y5632D01*
G01X1969Y5624D01*
G01X1984Y5618D01*
G01X1999Y5614D01*
G01X2016Y5613D01*
G01X2030Y5614D01*
G01X2044Y5617D01*
G01X2058Y5622D01*
G01X2071Y5628D01*
G01X2082Y5637D01*
G01X2092Y5648D01*
G01X2101Y5659D01*
G01X2108Y5672D01*
G01X2113Y5685D01*
G01X2116Y5699D01*
G01X2117Y5714D01*
G01X2117Y5858D01*
G01X2118Y5881D01*
G01X2121Y5905D01*
G01X2127Y5928D01*
G01X2134Y5949D01*
G01X2143Y5971D01*
G01X2155Y5992D01*
G01X2168Y6011D01*
G01X2183Y6029D01*
G01X2199Y6046D01*
G01X2229Y6071D01*
G01X2238Y6083D01*
G01X2246Y6097D01*
G01X2252Y6111D01*
G01X2256Y6126D01*
G01X2257Y6141D01*
G01X2256Y6156D01*
G01X2252Y6170D01*
G01X2247Y6184D01*
G01X2240Y6196D01*
G01X2232Y6208D01*
G01X2221Y6218D01*
G01X2210Y6227D01*
G01X2197Y6234D01*
G01X2183Y6239D01*
G01X2169Y6242D01*
G01X2155Y6243D01*
G01X1564Y6243D01*
G01X1547Y6241D01*
G01X1531Y6237D01*
G01X1516Y6231D01*
G01X1502Y6222D01*
G01X1488Y6231D01*
G01X1473Y6237D01*
G01X1457Y6241D01*
G01X1440Y6243D01*
G01X967Y6243D01*
G01X950Y6241D01*
G01X934Y6237D01*
G01X919Y6231D01*
G01X905Y6222D01*
G01X891Y6231D01*
G01X876Y6237D01*
G01X860Y6241D01*
G01X843Y6243D01*
G37*

%LPC*%
G36*
G01X9505Y1671D02*
G01X9505Y2240D01*
G01X9468Y2221D01*
G01X9431Y2201D01*
G01X9395Y2178D01*
G01X9361Y2155D01*
G01X9329Y2129D01*
G01X9297Y2101D01*
G01X9267Y2072D01*
G01X9238Y2041D01*
G01X9212Y2009D01*
G01X9187Y1976D01*
G01X9163Y1941D01*
G01X9142Y1906D01*
G01X9122Y1869D01*
G01X9104Y1830D01*
G01X9089Y1792D01*
G01X9075Y1752D01*
G01X9063Y1712D01*
G01X9054Y1671D01*
G01X9505Y1671D01*
G37*
G36*
G01X1579Y2221D02*
G01X1542Y2240D01*
G01X1542Y1671D01*
G01X1993Y1671D01*
G01X1984Y1712D01*
G01X1972Y1752D01*
G01X1958Y1792D01*
G01X1943Y1830D01*
G01X1925Y1869D01*
G01X1905Y1906D01*
G01X1884Y1941D01*
G01X1860Y1976D01*
G01X1835Y2009D01*
G01X1808Y2041D01*
G01X1780Y2072D01*
G01X1750Y2101D01*
G01X1718Y2129D01*
G01X1686Y2155D01*
G01X1652Y2178D01*
G01X1616Y2201D01*
G01X1579Y2221D01*
G37*
G36*
G01X2511Y4670D02*
G01X2213Y4670D01*
G01X2213Y4609D01*
G01X2211Y4540D01*
G01X2209Y4524D01*
G01X2204Y4510D01*
G01X2198Y4496D01*
G01X2189Y4484D01*
G01X2179Y4473D01*
G01X2167Y4463D01*
G01X2154Y4455D01*
G01X2140Y4450D01*
G01X2124Y4446D01*
G01X2109Y4445D01*
G01X1542Y4445D01*
G01X1542Y3877D01*
G01X1579Y3895D01*
G01X1615Y3915D01*
G01X1651Y3938D01*
G01X1685Y3962D01*
G01X1718Y3987D01*
G01X1749Y4015D01*
G01X1779Y4044D01*
G01X1807Y4074D01*
G01X1834Y4106D01*
G01X1859Y4140D01*
G01X1883Y4174D01*
G01X1905Y4210D01*
G01X1924Y4247D01*
G01X1942Y4284D01*
G01X1949Y4297D01*
G01X1957Y4309D01*
G01X1967Y4320D01*
G01X1979Y4328D01*
G01X1992Y4335D01*
G01X2006Y4341D01*
G01X2020Y4344D01*
G01X2035Y4345D01*
G01X2051Y4344D01*
G01X2066Y4340D01*
G01X2080Y4334D01*
G01X2094Y4326D01*
G01X2106Y4316D01*
G01X2116Y4304D01*
G01X2125Y4291D01*
G01X2131Y4277D01*
G01X2140Y4254D01*
G01X2151Y4232D01*
G01X2165Y4211D01*
G01X2179Y4192D01*
G01X2196Y4174D01*
G01X2215Y4158D01*
G01X2235Y4144D01*
G01X2256Y4131D01*
G01X2278Y4121D01*
G01X2301Y4113D01*
G01X2325Y4107D01*
G01X2350Y4104D01*
G01X2374Y4103D01*
G01X2511Y4103D01*
G01X2511Y4670D01*
G37*
G36*
G01X8834Y4670D02*
G01X8536Y4670D01*
G01X8536Y4103D01*
G01X8673Y4103D01*
G01X8697Y4104D01*
G01X8722Y4107D01*
G01X8746Y4113D01*
G01X8769Y4121D01*
G01X8791Y4132D01*
G01X8812Y4144D01*
G01X8832Y4158D01*
G01X8850Y4174D01*
G01X8867Y4192D01*
G01X8882Y4211D01*
G01X8896Y4232D01*
G01X8907Y4254D01*
G01X8916Y4277D01*
G01X8922Y4291D01*
G01X8931Y4304D01*
G01X8941Y4316D01*
G01X8953Y4326D01*
G01X8966Y4334D01*
G01X8981Y4341D01*
G01X8996Y4344D01*
G01X9012Y4346D01*
G01X9027Y4345D01*
G01X9041Y4341D01*
G01X9055Y4336D01*
G01X9067Y4329D01*
G01X9079Y4320D01*
G01X9090Y4310D01*
G01X9098Y4298D01*
G01X9105Y4285D01*
G01X9123Y4247D01*
G01X9142Y4210D01*
G01X9164Y4174D01*
G01X9187Y4140D01*
G01X9213Y4106D01*
G01X9267Y4044D01*
G01X9297Y4015D01*
G01X9329Y3987D01*
G01X9362Y3962D01*
G01X9396Y3938D01*
G01X9431Y3916D01*
G01X9468Y3895D01*
G01X9505Y3877D01*
G01X9505Y4445D01*
G01X8938Y4445D01*
G01X8923Y4446D01*
G01X8907Y4450D01*
G01X8893Y4455D01*
G01X8880Y4463D01*
G01X8868Y4473D01*
G01X8858Y4484D01*
G01X8849Y4496D01*
G01X8843Y4510D01*
G01X8838Y4524D01*
G01X8836Y4540D01*
G01X8834Y4609D01*
G01X8834Y4670D01*
G37*

%LPD*%
G54D11*
G01X7042Y5110D02*
G01X7042Y3639D01*
G01X6539Y3134D01*
G01X4507Y3134D01*
G01X4005Y3644D01*
G01X4005Y5110D01*
G36*
G01X7873Y5858D02*
G01X8673Y5858D01*
G01X8673Y4359D01*
G01X7873Y4359D01*
G01X7873Y5858D01*
G37*
G36*
G01X6664Y5858D02*
G01X7423Y5858D01*
G01X7423Y4359D01*
G01X6664Y4359D01*
G01X6664Y5858D01*
G37*
G36*
G01X5673Y5858D02*
G01X6374Y5858D01*
G01X6374Y4359D01*
G01X5673Y4359D01*
G01X5673Y5858D01*
G37*
G36*
G01X4673Y5858D02*
G01X5374Y5858D01*
G01X5374Y4359D01*
G01X4673Y4359D01*
G01X4673Y5858D01*
G37*
G36*
G01X3624Y5858D02*
G01X4383Y5858D01*
G01X4383Y4359D01*
G01X3624Y4359D01*
G01X3624Y5858D01*
G37*
G36*
G01X2374Y5858D02*
G01X3174Y5858D01*
G01X3174Y4359D01*
G01X2374Y4359D01*
G01X2374Y5858D01*
G37*
G54D15*
G01X9844Y5308D02*
G01X9844Y4608D01*
G01X1203Y5308D02*
G01X1203Y4608D01*
G01X9844Y1509D02*
G01X9844Y809D01*
G01X1203Y1509D02*
G01X1203Y809D01*
M00*
M02*
