G04 Layer: BottomLayer*
G04 EasyEDA v6.3.53, 2020-06-26T23:15:25+02:00*
G04 6fd25902097d4e8db6daa192949f21c5,4fd0710e9bbd4be3aafab857286521a7,10*
G04 Gerber Generator version 0.2*
G04 Scale: 100 percent, Rotated: No, Reflected: No *
G04 Dimensions in millimeters *
G04 leading zeros omitted , absolute positions ,3 integer and 3 decimal *
%FSLAX33Y33*%
%MOMM*%
G90*
G71D02*

%ADD15C,1.099998*%
%ADD16R,3.999992X4.999990*%

%LPD*%
G36*
G01X843Y6243D02*
G01X358Y6243D01*
G01X343Y6242D01*
G01X329Y6239D01*
G01X315Y6234D01*
G01X303Y6227D01*
G01X291Y6218D01*
G01X281Y6208D01*
G01X272Y6196D01*
G01X265Y6184D01*
G01X260Y6170D01*
G01X257Y6156D01*
G01X256Y6141D01*
G01X256Y5638D01*
G01X257Y5624D01*
G01X260Y5609D01*
G01X265Y5596D01*
G01X272Y5584D01*
G01X281Y5572D01*
G01X291Y5562D01*
G01X303Y5553D01*
G01X315Y5546D01*
G01X329Y5541D01*
G01X343Y5538D01*
G01X358Y5537D01*
G01X373Y5538D01*
G01X388Y5541D01*
G01X402Y5547D01*
G01X415Y5555D01*
G01X427Y5564D01*
G01X437Y5575D01*
G01X446Y5588D01*
G01X452Y5601D01*
G01X468Y5639D01*
G01X486Y5676D01*
G01X506Y5712D01*
G01X527Y5747D01*
G01X551Y5781D01*
G01X576Y5814D01*
G01X602Y5845D01*
G01X630Y5875D01*
G01X660Y5904D01*
G01X691Y5931D01*
G01X724Y5956D01*
G01X757Y5980D01*
G01X792Y6002D01*
G01X828Y6021D01*
G01X865Y6040D01*
G01X865Y5471D01*
G01X358Y5471D01*
G01X343Y5470D01*
G01X329Y5467D01*
G01X315Y5462D01*
G01X303Y5456D01*
G01X291Y5446D01*
G01X281Y5436D01*
G01X272Y5425D01*
G01X265Y5412D01*
G01X260Y5399D01*
G01X257Y5384D01*
G01X256Y5370D01*
G01X256Y4547D01*
G01X257Y4532D01*
G01X260Y4518D01*
G01X265Y4505D01*
G01X272Y4492D01*
G01X281Y4480D01*
G01X291Y4470D01*
G01X303Y4461D01*
G01X315Y4454D01*
G01X329Y4449D01*
G01X343Y4446D01*
G01X358Y4445D01*
G01X865Y4445D01*
G01X865Y3877D01*
G01X828Y3895D01*
G01X792Y3915D01*
G01X757Y3937D01*
G01X724Y3961D01*
G01X691Y3986D01*
G01X660Y4013D01*
G01X630Y4041D01*
G01X602Y4071D01*
G01X576Y4102D01*
G01X551Y4135D01*
G01X527Y4169D01*
G01X506Y4204D01*
G01X486Y4240D01*
G01X468Y4277D01*
G01X452Y4315D01*
G01X446Y4329D01*
G01X437Y4342D01*
G01X427Y4353D01*
G01X415Y4362D01*
G01X402Y4369D01*
G01X388Y4375D01*
G01X373Y4379D01*
G01X358Y4380D01*
G01X343Y4379D01*
G01X329Y4376D01*
G01X315Y4370D01*
G01X303Y4364D01*
G01X291Y4355D01*
G01X281Y4345D01*
G01X272Y4333D01*
G01X265Y4320D01*
G01X260Y4307D01*
G01X257Y4293D01*
G01X256Y4278D01*
G01X256Y1839D01*
G01X257Y1824D01*
G01X260Y1810D01*
G01X265Y1796D01*
G01X272Y1784D01*
G01X281Y1772D01*
G01X291Y1762D01*
G01X303Y1753D01*
G01X315Y1746D01*
G01X329Y1741D01*
G01X343Y1738D01*
G01X358Y1737D01*
G01X373Y1738D01*
G01X388Y1742D01*
G01X402Y1747D01*
G01X415Y1755D01*
G01X427Y1764D01*
G01X437Y1775D01*
G01X446Y1788D01*
G01X452Y1802D01*
G01X468Y1839D01*
G01X486Y1876D01*
G01X506Y1912D01*
G01X527Y1947D01*
G01X551Y1981D01*
G01X576Y2014D01*
G01X602Y2045D01*
G01X630Y2075D01*
G01X660Y2104D01*
G01X691Y2131D01*
G01X724Y2156D01*
G01X757Y2180D01*
G01X792Y2202D01*
G01X828Y2222D01*
G01X865Y2240D01*
G01X865Y1671D01*
G01X358Y1671D01*
G01X343Y1670D01*
G01X329Y1667D01*
G01X315Y1662D01*
G01X303Y1656D01*
G01X291Y1647D01*
G01X281Y1636D01*
G01X272Y1625D01*
G01X265Y1612D01*
G01X260Y1599D01*
G01X257Y1585D01*
G01X256Y1570D01*
G01X256Y747D01*
G01X257Y732D01*
G01X260Y718D01*
G01X265Y705D01*
G01X272Y692D01*
G01X281Y680D01*
G01X291Y670D01*
G01X303Y661D01*
G01X315Y654D01*
G01X329Y649D01*
G01X343Y646D01*
G01X358Y645D01*
G01X865Y645D01*
G01X865Y358D01*
G01X866Y343D01*
G01X869Y329D01*
G01X874Y316D01*
G01X881Y303D01*
G01X890Y291D01*
G01X900Y281D01*
G01X912Y272D01*
G01X925Y265D01*
G01X938Y260D01*
G01X952Y257D01*
G01X967Y256D01*
G01X1440Y256D01*
G01X1455Y257D01*
G01X1469Y260D01*
G01X1482Y265D01*
G01X1495Y272D01*
G01X1507Y281D01*
G01X1517Y291D01*
G01X1526Y303D01*
G01X1533Y316D01*
G01X1538Y329D01*
G01X1541Y343D01*
G01X1542Y358D01*
G01X1542Y645D01*
G01X1993Y645D01*
G01X1983Y604D01*
G01X1972Y563D01*
G01X1958Y523D01*
G01X1942Y484D01*
G01X1923Y446D01*
G01X1903Y408D01*
G01X1896Y392D01*
G01X1891Y375D01*
G01X1890Y358D01*
G01X1891Y343D01*
G01X1894Y329D01*
G01X1899Y316D01*
G01X1906Y303D01*
G01X1915Y291D01*
G01X1925Y281D01*
G01X1937Y272D01*
G01X1949Y265D01*
G01X1963Y260D01*
G01X1977Y257D01*
G01X1991Y256D01*
G01X3165Y256D01*
G01X3180Y257D01*
G01X3194Y260D01*
G01X3208Y265D01*
G01X3220Y272D01*
G01X3232Y281D01*
G01X3242Y291D01*
G01X3251Y303D01*
G01X3258Y316D01*
G01X3263Y329D01*
G01X3266Y343D01*
G01X3267Y358D01*
G01X3267Y1185D01*
G01X4460Y1185D01*
G01X4460Y358D01*
G01X4461Y343D01*
G01X4464Y329D01*
G01X4469Y316D01*
G01X4476Y303D01*
G01X4485Y291D01*
G01X4495Y281D01*
G01X4506Y272D01*
G01X4519Y265D01*
G01X4533Y260D01*
G01X4547Y257D01*
G01X4562Y256D01*
G01X6486Y256D01*
G01X6500Y257D01*
G01X6514Y260D01*
G01X6528Y265D01*
G01X6541Y272D01*
G01X6552Y281D01*
G01X6562Y291D01*
G01X6571Y303D01*
G01X6578Y316D01*
G01X6583Y329D01*
G01X6586Y343D01*
G01X6587Y358D01*
G01X6587Y1185D01*
G01X7780Y1185D01*
G01X7780Y358D01*
G01X7781Y343D01*
G01X7784Y329D01*
G01X7789Y316D01*
G01X7796Y303D01*
G01X7805Y291D01*
G01X7815Y281D01*
G01X7827Y272D01*
G01X7839Y265D01*
G01X7853Y260D01*
G01X7867Y257D01*
G01X7882Y256D01*
G01X9056Y256D01*
G01X9070Y257D01*
G01X9084Y260D01*
G01X9098Y265D01*
G01X9110Y272D01*
G01X9122Y281D01*
G01X9132Y291D01*
G01X9141Y303D01*
G01X9148Y316D01*
G01X9153Y329D01*
G01X9156Y343D01*
G01X9157Y358D01*
G01X9156Y375D01*
G01X9151Y392D01*
G01X9144Y408D01*
G01X9124Y446D01*
G01X9105Y484D01*
G01X9089Y523D01*
G01X9075Y563D01*
G01X9064Y604D01*
G01X9054Y645D01*
G01X9505Y645D01*
G01X9505Y358D01*
G01X9506Y343D01*
G01X9509Y329D01*
G01X9514Y316D01*
G01X9521Y303D01*
G01X9530Y291D01*
G01X9540Y281D01*
G01X9552Y272D01*
G01X9565Y265D01*
G01X9578Y260D01*
G01X9592Y257D01*
G01X9607Y256D01*
G01X10080Y256D01*
G01X10095Y257D01*
G01X10109Y260D01*
G01X10122Y265D01*
G01X10135Y272D01*
G01X10147Y281D01*
G01X10157Y291D01*
G01X10166Y303D01*
G01X10173Y316D01*
G01X10178Y329D01*
G01X10181Y343D01*
G01X10182Y358D01*
G01X10182Y645D01*
G01X10642Y645D01*
G01X10656Y646D01*
G01X10670Y649D01*
G01X10684Y654D01*
G01X10696Y661D01*
G01X10708Y670D01*
G01X10718Y680D01*
G01X10727Y692D01*
G01X10734Y705D01*
G01X10739Y718D01*
G01X10742Y732D01*
G01X10743Y747D01*
G01X10743Y1570D01*
G01X10742Y1585D01*
G01X10739Y1599D01*
G01X10734Y1612D01*
G01X10727Y1625D01*
G01X10718Y1636D01*
G01X10708Y1647D01*
G01X10696Y1656D01*
G01X10684Y1662D01*
G01X10670Y1667D01*
G01X10656Y1670D01*
G01X10642Y1671D01*
G01X10182Y1671D01*
G01X10182Y2240D01*
G01X10220Y2221D01*
G01X10258Y2200D01*
G01X10294Y2176D01*
G01X10329Y2152D01*
G01X10363Y2125D01*
G01X10395Y2096D01*
G01X10426Y2066D01*
G01X10455Y2034D01*
G01X10482Y2001D01*
G01X10507Y1966D01*
G01X10530Y1930D01*
G01X10552Y1893D01*
G01X10560Y1880D01*
G01X10571Y1869D01*
G01X10583Y1858D01*
G01X10596Y1851D01*
G01X10611Y1845D01*
G01X10626Y1841D01*
G01X10642Y1840D01*
G01X10656Y1841D01*
G01X10670Y1844D01*
G01X10684Y1849D01*
G01X10696Y1856D01*
G01X10708Y1865D01*
G01X10718Y1875D01*
G01X10727Y1887D01*
G01X10734Y1900D01*
G01X10739Y1913D01*
G01X10742Y1927D01*
G01X10743Y1942D01*
G01X10743Y4175D01*
G01X10742Y4190D01*
G01X10739Y4204D01*
G01X10734Y4217D01*
G01X10727Y4230D01*
G01X10718Y4241D01*
G01X10708Y4252D01*
G01X10696Y4260D01*
G01X10684Y4267D01*
G01X10670Y4272D01*
G01X10656Y4275D01*
G01X10642Y4277D01*
G01X10626Y4275D01*
G01X10611Y4272D01*
G01X10596Y4266D01*
G01X10583Y4258D01*
G01X10571Y4248D01*
G01X10560Y4236D01*
G01X10552Y4224D01*
G01X10530Y4186D01*
G01X10507Y4151D01*
G01X10482Y4115D01*
G01X10455Y4082D01*
G01X10426Y4050D01*
G01X10395Y4020D01*
G01X10363Y3992D01*
G01X10329Y3965D01*
G01X10294Y3940D01*
G01X10258Y3917D01*
G01X10220Y3896D01*
G01X10182Y3877D01*
G01X10182Y4445D01*
G01X10642Y4445D01*
G01X10656Y4446D01*
G01X10670Y4449D01*
G01X10684Y4454D01*
G01X10696Y4461D01*
G01X10708Y4470D01*
G01X10718Y4480D01*
G01X10727Y4492D01*
G01X10734Y4505D01*
G01X10739Y4518D01*
G01X10742Y4532D01*
G01X10743Y4547D01*
G01X10743Y5370D01*
G01X10742Y5384D01*
G01X10739Y5399D01*
G01X10734Y5412D01*
G01X10727Y5425D01*
G01X10718Y5436D01*
G01X10708Y5446D01*
G01X10696Y5456D01*
G01X10684Y5462D01*
G01X10670Y5467D01*
G01X10656Y5470D01*
G01X10642Y5471D01*
G01X10182Y5471D01*
G01X10182Y6040D01*
G01X10258Y6000D01*
G01X10294Y5976D01*
G01X10329Y5951D01*
G01X10363Y5925D01*
G01X10395Y5896D01*
G01X10426Y5866D01*
G01X10455Y5834D01*
G01X10482Y5801D01*
G01X10507Y5766D01*
G01X10530Y5730D01*
G01X10552Y5693D01*
G01X10560Y5680D01*
G01X10571Y5668D01*
G01X10583Y5658D01*
G01X10596Y5651D01*
G01X10611Y5645D01*
G01X10626Y5641D01*
G01X10642Y5640D01*
G01X10656Y5641D01*
G01X10670Y5644D01*
G01X10684Y5649D01*
G01X10696Y5656D01*
G01X10708Y5665D01*
G01X10718Y5675D01*
G01X10727Y5687D01*
G01X10734Y5699D01*
G01X10739Y5713D01*
G01X10742Y5727D01*
G01X10743Y5742D01*
G01X10743Y6141D01*
G01X10742Y6156D01*
G01X10739Y6170D01*
G01X10734Y6184D01*
G01X10727Y6196D01*
G01X10718Y6208D01*
G01X10708Y6218D01*
G01X10696Y6227D01*
G01X10684Y6234D01*
G01X10670Y6239D01*
G01X10656Y6242D01*
G01X10642Y6243D01*
G01X10204Y6243D01*
G01X10187Y6241D01*
G01X10171Y6237D01*
G01X10156Y6231D01*
G01X10142Y6222D01*
G01X10128Y6231D01*
G01X10113Y6237D01*
G01X10097Y6241D01*
G01X10080Y6243D01*
G01X9607Y6243D01*
G01X9590Y6241D01*
G01X9574Y6237D01*
G01X9559Y6231D01*
G01X9545Y6222D01*
G01X9531Y6231D01*
G01X9516Y6237D01*
G01X9500Y6241D01*
G01X9483Y6243D01*
G01X1564Y6243D01*
G01X1547Y6241D01*
G01X1531Y6237D01*
G01X1516Y6231D01*
G01X1502Y6222D01*
G01X1488Y6231D01*
G01X1473Y6237D01*
G01X1457Y6241D01*
G01X1440Y6243D01*
G01X967Y6243D01*
G01X950Y6241D01*
G01X934Y6237D01*
G01X919Y6231D01*
G01X905Y6222D01*
G01X891Y6231D01*
G01X876Y6237D01*
G01X860Y6241D01*
G01X843Y6243D01*
G37*

%LPC*%
G36*
G01X1993Y4445D02*
G01X1542Y4445D01*
G01X1542Y3877D01*
G01X1579Y3895D01*
G01X1616Y3916D01*
G01X1652Y3938D01*
G01X1686Y3962D01*
G01X1718Y3988D01*
G01X1750Y4015D01*
G01X1780Y4044D01*
G01X1808Y4075D01*
G01X1835Y4107D01*
G01X1860Y4141D01*
G01X1884Y4175D01*
G01X1905Y4211D01*
G01X1925Y4248D01*
G01X1943Y4286D01*
G01X1958Y4325D01*
G01X1972Y4364D01*
G01X1984Y4405D01*
G01X1993Y4445D01*
G37*
G36*
G01X9505Y5471D02*
G01X9505Y6040D01*
G01X9468Y6021D01*
G01X9431Y6001D01*
G01X9395Y5978D01*
G01X9361Y5954D01*
G01X9329Y5929D01*
G01X9297Y5901D01*
G01X9267Y5872D01*
G01X9238Y5841D01*
G01X9212Y5809D01*
G01X9187Y5776D01*
G01X9163Y5741D01*
G01X9142Y5706D01*
G01X9122Y5668D01*
G01X9104Y5630D01*
G01X9089Y5592D01*
G01X9075Y5552D01*
G01X9063Y5512D01*
G01X9054Y5471D01*
G01X9505Y5471D01*
G37*
G36*
G01X1579Y6021D02*
G01X1542Y6040D01*
G01X1542Y5471D01*
G01X1993Y5471D01*
G01X1984Y5512D01*
G01X1972Y5552D01*
G01X1958Y5592D01*
G01X1943Y5630D01*
G01X1925Y5668D01*
G01X1905Y5706D01*
G01X1884Y5741D01*
G01X1860Y5776D01*
G01X1835Y5809D01*
G01X1808Y5841D01*
G01X1780Y5872D01*
G01X1750Y5901D01*
G01X1718Y5929D01*
G01X1686Y5954D01*
G01X1652Y5978D01*
G01X1616Y6001D01*
G01X1579Y6021D01*
G37*
G36*
G01X9505Y4445D02*
G01X9054Y4445D01*
G01X9063Y4405D01*
G01X9075Y4364D01*
G01X9089Y4325D01*
G01X9104Y4286D01*
G01X9122Y4248D01*
G01X9142Y4211D01*
G01X9163Y4175D01*
G01X9187Y4141D01*
G01X9212Y4107D01*
G01X9238Y4075D01*
G01X9267Y4044D01*
G01X9297Y4015D01*
G01X9329Y3988D01*
G01X9361Y3962D01*
G01X9395Y3938D01*
G01X9431Y3916D01*
G01X9468Y3895D01*
G01X9505Y3877D01*
G01X9505Y4445D01*
G37*
G36*
G01X1579Y2221D02*
G01X1542Y2240D01*
G01X1542Y1671D01*
G01X1993Y1671D01*
G01X1984Y1712D01*
G01X1972Y1752D01*
G01X1958Y1792D01*
G01X1943Y1830D01*
G01X1925Y1869D01*
G01X1905Y1906D01*
G01X1884Y1941D01*
G01X1860Y1976D01*
G01X1835Y2009D01*
G01X1808Y2041D01*
G01X1780Y2072D01*
G01X1750Y2101D01*
G01X1718Y2129D01*
G01X1686Y2155D01*
G01X1652Y2178D01*
G01X1616Y2201D01*
G01X1579Y2221D01*
G37*
G36*
G01X9505Y1671D02*
G01X9505Y2240D01*
G01X9468Y2221D01*
G01X9431Y2201D01*
G01X9395Y2178D01*
G01X9361Y2155D01*
G01X9329Y2129D01*
G01X9297Y2101D01*
G01X9267Y2072D01*
G01X9238Y2041D01*
G01X9212Y2009D01*
G01X9187Y1976D01*
G01X9163Y1941D01*
G01X9142Y1906D01*
G01X9122Y1869D01*
G01X9104Y1830D01*
G01X9089Y1792D01*
G01X9075Y1752D01*
G01X9063Y1712D01*
G01X9054Y1671D01*
G01X9505Y1671D01*
G37*
G36*
G01X7523Y5255D02*
G01X6587Y5255D01*
G01X6587Y3812D01*
G01X7780Y3812D01*
G01X7780Y4998D01*
G01X7779Y5022D01*
G01X7775Y5046D01*
G01X7770Y5068D01*
G01X7763Y5091D01*
G01X7753Y5113D01*
G01X7741Y5134D01*
G01X7728Y5153D01*
G01X7713Y5171D01*
G01X7696Y5188D01*
G01X7678Y5203D01*
G01X7659Y5217D01*
G01X7638Y5228D01*
G01X7616Y5238D01*
G01X7594Y5245D01*
G01X7571Y5251D01*
G01X7547Y5254D01*
G01X7523Y5255D01*
G37*
G36*
G01X4460Y5255D02*
G01X3523Y5255D01*
G01X3500Y5254D01*
G01X3476Y5251D01*
G01X3453Y5245D01*
G01X3431Y5238D01*
G01X3409Y5228D01*
G01X3388Y5217D01*
G01X3369Y5203D01*
G01X3351Y5188D01*
G01X3334Y5171D01*
G01X3319Y5153D01*
G01X3306Y5134D01*
G01X3294Y5113D01*
G01X3284Y5091D01*
G01X3277Y5068D01*
G01X3272Y5046D01*
G01X3268Y5022D01*
G01X3267Y4998D01*
G01X3267Y3812D01*
G01X4460Y3812D01*
G01X4460Y5255D01*
G37*

%LPD*%
G54D16*
G01X5523Y2499D03*
G54D15*
G01X9844Y5308D02*
G01X9844Y4608D01*
G01X1203Y5308D02*
G01X1203Y4608D01*
G01X9844Y1509D02*
G01X9844Y809D01*
G01X1203Y1509D02*
G01X1203Y809D01*
M00*
M02*
